<svg width="45" height="45" viewBox="0 0 45 45" fill="none" xmlns="http://www.w3.org/2000/svg">
<path d="M4.21884 22.4998C4.07821 22.4998 3.79696 22.4998 3.65634 22.3592C3.37509 22.2186 3.09384 21.9373 2.95321 21.5155L0.984463 16.1717C0.562588 15.1873 0.703213 14.0623 1.12509 13.078C1.54696 12.0936 2.39071 11.2498 3.51571 10.828L32.6251 0.281094C33.7501 -0.140781 34.8751 -0.000156339 35.8595 0.421719C36.8438 0.843594 37.547 1.68734 37.9688 2.81234L39.9376 8.15609C40.0782 8.43734 40.0782 8.85922 39.9376 9.28109C39.6563 9.56234 39.3751 9.70297 39.0938 9.84359L4.64071 22.3592C4.50009 22.4998 4.35946 22.4998 4.21884 22.4998Z" fill="#FF6B02"/>
<path d="M42.1875 28.125V22.5C42.1875 21.6562 41.625 21.0938 40.7812 21.0938H4.21875C3.375 21.0938 2.8125 21.6562 2.8125 22.5V28.125H42.1875Z" fill="#FF6B02"/>
<path d="M2.8125 30.9375V40.7812C2.8125 43.1719 4.64062 45 7.03125 45H37.9688C40.3594 45 42.1875 43.1719 42.1875 40.7812V30.9375H2.8125Z" fill="#FF6B02"/>
</svg>
