<svg width="45" height="45" viewBox="0 0 45 45" fill="none" xmlns="http://www.w3.org/2000/svg">
<path d="M9.84375 39.375H4.21875C3.375 39.375 2.8125 38.8125 2.8125 37.9688C2.8125 37.125 3.375 36.5625 4.21875 36.5625H9.84375C10.6875 36.5625 11.25 37.125 11.25 37.9688C11.25 38.8125 10.6875 39.375 9.84375 39.375Z" fill="#FF001B"/>
<path d="M12.6562 42.1875C10.2656 42.1875 8.4375 40.3594 8.4375 37.9688C8.4375 35.5781 10.2656 33.75 12.6562 33.75C15.0469 33.75 16.875 35.5781 16.875 37.9688C16.875 40.3594 15.0469 42.1875 12.6562 42.1875Z" fill="#FF001B"/>
<path d="M40.7813 36.5625H19.5469C19.6875 36.9844 19.6875 37.5469 19.6875 37.9688C19.6875 38.3906 19.6875 38.9531 19.5469 39.375H40.7813C41.625 39.375 42.1875 38.8125 42.1875 37.9688C42.1875 37.125 41.625 36.5625 40.7813 36.5625Z" fill="#FF001B"/>
<path d="M36.5625 4.21875H8.4375C4.5 4.21875 1.40625 7.3125 1.40625 11.25V25.3125C1.40625 29.25 4.5 32.3438 8.4375 32.3438H36.5625C40.5 32.3438 43.5938 29.25 43.5938 25.3125V11.25C43.5938 7.3125 40.5 4.21875 36.5625 4.21875ZM28.2656 20.6719L21.2344 24.8906C20.8125 25.1719 20.25 25.3125 19.8281 25.3125C19.4063 25.3125 18.8438 25.1719 18.4219 24.8906C17.5781 24.3281 17.0156 23.4844 17.0156 22.5V14.0625C17.0156 13.0781 17.5781 12.2344 18.4219 11.6719C19.2656 11.1094 20.3906 11.25 21.2344 11.6719L28.2656 15.8906C29.1094 16.4531 29.5312 17.2969 29.5312 18.2812C29.5312 19.2656 28.9688 20.1094 28.2656 20.6719Z" fill="#FF001B"/>
</svg>
