<svg aria-hidden="true" xmlns="http://www.w3.org/2000/svg">
  <defs>
    <symbol id="icon-arrow-left" viewBox="0 0 32 32">
      <path stroke-linejoin="round" stroke-linecap="round" stroke-miterlimit="4" stroke-width="2.6667"
        d="M25.333 16h-18.667"></path>
      <path stroke-linejoin="round" stroke-linecap="round" stroke-miterlimit="4" stroke-width="2.6667"
        d="M16 25.333l-9.333-9.333 9.333-9.333"></path>
    </symbol>
    <symbol id="icon-arrow-right" viewBox="0 0 32 32">
      <path stroke-linejoin="round" stroke-linecap="round" stroke-miterlimit="4" stroke-width="2.6667"
        d="M6.667 16h18.667"></path>
      <path stroke-linejoin="round" stroke-linecap="round" stroke-miterlimit="4" stroke-width="2.6667"
        d="M16 25.333l9.333-9.333-9.333-9.333"></path>
    </symbol>
    <symbol id="icon-close" viewBox="0 0 32 32">
      <path stroke-linejoin="miter" stroke-linecap="butt" stroke-miterlimit="4" stroke-width="2.1333"
        d="M8.533 8.533l14.933 14.933"></path>
      <path stroke-linejoin="miter" stroke-linecap="butt" stroke-miterlimit="4" stroke-width="2.1333"
        d="M8.533 23.467l14.933-14.933"></path>
    </symbol>
    <symbol fill="none" xmlns="http://www.w3.org/2000/svg" viewBox="0 0 24 24" id="logo">
      <path
        d="M19.82 2H4.18A2.18 2.18 0 002 4.18v15.64A2.18 2.18 0 004.18 22h15.64A2.18 2.18 0 0022 19.82V4.18A2.18 2.18 0 0019.82 2zM7 2v20M17 2v20M2 12h20M2 7h5M2 17h5m10 0h5M17 7h5"
        stroke="#818181" stroke-width="2" stroke-linecap="round" stroke-linejoin="round"></path>
      <path
        d="M19.82 2H4.18A2.18 2.18 0 002 4.18v15.64A2.18 2.18 0 004.18 22h15.64A2.18 2.18 0 0022 19.82V4.18A2.18 2.18 0 0019.82 2zM7 2v20M17 2v20M2 12h20M2 7h5M2 17h5m10 0h5M17 7h5"
        stroke-width="2" stroke-linecap="round" stroke-linejoin="round"></path>
    </symbol>
    <symbol id="icon-heart" viewBox="0 0 32 32">
      <path fill="#ff6b08" style="fill: var(--color2, #ff6b08)"
        d="M16 30.144l-2.24-2.218c-8.32-7.287-13.76-12.198-13.76-18.218 0-4.911 3.84-8.713 8.8-8.713 2.72 0 5.44 1.267 7.2 3.327 1.76-2.059 4.48-3.327 7.2-3.327 4.96 0 8.8 3.802 8.8 8.713 0 6.020-5.44 10.931-13.76 18.218l-2.24 2.218z">
      </path>
    </symbol>
    <symbol id="scroll-up" viewBox="0 0 32 32">
      <path style="fill: currentColor"
        d="M0 16c0 8.837 7.163 16 16 16s16-7.163 16-16-7.163-16-16-16-16 7.163-16 16zM29 16c0 7.18-5.82 13-13 13s-13-5.82-13-13 5.82-13 13-13 13 5.82 13 13z">
      </path>
      <path style="fill: currentColor" d="M22.086 20.914l2.829-2.829-8.914-8.914-8.914 8.914 2.828 2.828 6.086-6.086z">
      </path>
    </symbol>
    <symbol id="search" viewBox="0 0 32 32">
      <path fill="none" stroke="#fff" style="stroke: var(--color1, #fff)" stroke-linejoin="round" stroke-linecap="round"
        stroke-miterlimit="4" stroke-width="2.6667"
        d="M14.667 25.333c5.891 0 10.667-4.776 10.667-10.667s-4.776-10.667-10.667-10.667c-5.891 0-10.667 4.776-10.667 10.667s4.776 10.667 10.667 10.667z">
      </path>
      <path fill="none" stroke="#fff" style="stroke: var(--color1, #fff)" stroke-linejoin="round" stroke-linecap="round"
        stroke-miterlimit="4" stroke-width="2.6667" d="M28 28.001l-5.8-5.8"></path>
    </symbol>

    <symbol id="moon" viewBox="0 0 32 32">
      <path fill="#FF9966"
        d="M17.701 32a15.97 15.97 0 0012.429-5.925c.442-.544-.04-1.339-.723-1.209-7.763 1.478-14.891-4.474-14.891-12.31 0-4.514 2.416-8.665 6.344-10.9.605-.345.453-1.262-.235-1.389-.879-.17-1.89-.267-2.923-.268-8.832 0-16 7.157-16 16 0 8.832 7.157 16 16 16z" />
    </symbol>
    <symbol id="sun" viewBox="0 0 32 32">
      <path fill="#f9d71c"
        d="M16 10c-3.306 0-6 2.694-6 6s2.694 6 6 6 6-2.694 6-6-2.694-6-6-6zm15.4 5.031l-5.919-2.956L27.575 5.8c.281-.85-.525-1.656-1.369-1.369l-6.275 2.094L16.969.6c-.4-.8-1.537-.8-1.938 0l-2.956 5.919-6.281-2.094c-.85-.281-1.656.525-1.369 1.369l2.094 6.275L.6 15.032c-.8.4-.8 1.538 0 1.938l5.919 2.956-2.094 6.281c-.281.85.525 1.656 1.369 1.369l6.275-2.094 2.956 5.919c.4.8 1.538.8 1.938 0l2.956-5.919 6.275 2.094c.85.281 1.656-.525 1.369-1.369l-2.094-6.275 5.919-2.956c.813-.406.813-1.544.012-1.944zm-9.744 6.625c-3.119 3.119-8.194 3.119-11.313 0s-3.119-8.194 0-11.313c3.119-3.119 8.194-3.119 11.313 0s3.119 8.194 0 11.313z" />
    </symbol>
  </defs>
</svg>